<svg id="Layer_1" data-name="Layer 1" xmlns="http://www.w3.org/2000/svg" viewBox="0 0 340.16 56.69"><defs><style>.cls-1,.cls-2{fill:none;}.cls-1,.cls-2,.cls-3{stroke:#1f284c;stroke-miterlimit:10;}.cls-1,.cls-3{stroke-width:0.75px;}.cls-2{stroke-width:0.5px;}.cls-3{fill:#fff;}.cls-4,.cls-6{fill:#1f284c;}.cls-5{fill:#16933c;fill-rule:evenodd;}.cls-6{font-size:36.47px;font-family:ProximaNova-Semibold, Proxima Nova;font-weight:600;}.cls-7{letter-spacing:-0.03em;}.cls-8{letter-spacing:0em;}.cls-9{letter-spacing:-0.02em;}</style></defs><title>Logo KennisLoods</title><polyline class="cls-1" points="281.97 18.12 283.79 12.65 294.56 12.54 296.85 25.03"/><polyline class="cls-1" points="301.69 24.72 299.71 14.99 294.76 12.5"/><polygon class="cls-2" points="284.89 15.25 283.48 20.81 293.57 20.92 292.61 15.28 284.89 15.25"/><polygon class="cls-2" points="296.76 16.5 297.39 20.46 299.71 20.64 299.08 17.28 296.76 16.5"/><path class="cls-3" d="M306.47,32.37a7.27,7.27,0,0,1-3.2,4.72c-4.46,3.27-14.64,2.65-20.53.93-2.15-.62-4.65-2.42-6.42-6.38a23.07,23.07,0,0,1-1.5-4.78c-.07-.34-.14-.69-.2-1.05-.49-2.82,2.86-11.15,9.29-6.75,7.89,5.4,9.41,6.44,12.94,6,1.3-.17,2.37-.82,5.21-.58,3,.26,3.6.83,4,3.26.13.74.33,1.58.43,2.49v0A7.73,7.73,0,0,1,306.47,32.37Z"/><path class="cls-1" d="M280.14,18.06s-1.24,7.07-.67,9.53c.93,4.06,5.88,11.13,5.88,11.13"/><path class="cls-4" d="M306.47,32.37a37.9,37.9,0,0,1-9.39,1.06,49.87,49.87,0,0,1-7.14-.52,61.71,61.71,0,0,1-10.35-2.62c-1.7.77-2.76,1.17-3.27,1.35l-.34.11-.72-2.4-.1-.31L274.53,27h0l.28-.1a38.76,38.76,0,0,0,3.57-1.53l1-.45,1,.37A59,59,0,0,0,290.66,28c9,1.29,14.91-.53,15-.55l.9,2.79v0A7.73,7.73,0,0,1,306.47,32.37Z"/><path class="cls-5" d="M82.73,40C65,40,54.33,39,62.25,36c.49-.18,1.86-.62-.78-.48-11.09.58-46.51,3.7,1.75,6.84-4.65.17-10.23.28-17.52.28-11.06,0-26.6-.61-29-.72-4-.19-4.08.47-.47,1.16C26.33,45,59.83,46.89,85.67,46.42c14.28-.25,30.68-2.11,30.68-2.11-3.95-.51-11.84.09-15.09.25-11.42.57-19.55,0-22.17-.64,2.31-.14,4.49-.28,6.58-.43,55.82-4.07,73.24-4.55,127-1.64a749.52,749.52,0,0,0-99,4.63c-7,.84-6.71,1.63-.46,1.17,6.07-.45,9.19-.84,14-.89,6.12-.07,13.66.64,17.57,1,18.37,1.53,40.78-2.36,49.35-3.34,7.19-.82,16-1.68,24.05-.73,0,0,10.71-.43,19.12-.84C137,33.51,109.86,40,82.73,40Z"/><path class="cls-5" d="M200.08,34.55c21.84,3.16,67.72,9,67.72,9s-12.62.07-23-.69c-3.1-.23-6,0-1.66.6,1.08.15,14.05,1.9,26.49,2.25,22.31.63,30.72-1.69,32.56-2.43,3-1.2-3.77-.54-15.31-.52a227.93,227.93,0,0,1-28.07-1.67c19.28-.06,54.85-1,56.08-4,.32-.78-1.81-1.87-5.47-2.23h0c-7.78,2.16-20.16,4.17-37,4.29-19.85.15-47.28-1.56-71.83-4.44"/><text class="cls-6" transform="translate(55.01 37.06)"><tspan class="cls-7">K</tspan><tspan class="cls-8" x="21.55" y="0">ennis </tspan><tspan class="cls-9" x="118.59" y="0">L</tspan><tspan x="136.89" y="0">oods</tspan></text></svg>